# xmcd
#
# Track frame offsets:
#	150
#	3520
#	17837
#	30400
#	37902
#	48750
#	69022
#	81988
#	95023
#	108487
#	122226
#	139703
#	153354
#	173736
#	177380
#
# Disc length: 2605 seconds
#
# Revision: 1
# Processed by: cddbd v1.5.2PL0 Copyright (c) Steve Scherf et al.
# Submitted via: audiograbber 1.83.01
#
DISCID=b50a2b0f
DTITLE=Mark LaForme - Vintage
DYEAR=2006
DGENRE=Blues
TTITLE0=Chromaniac
TTITLE1=Too Much Monkey Business
TTITLE2=Too True Mama
TTITLE3=Rockin' Little Angel
TTITLE4=Good Morning, Mrs. Johnson
TTITLE5=All Souled Out
TTITLE6=Caledonia River
TTITLE7=Mirrored Sunglasses
TTITLE8=The Blue Plate Diner
TTITLE9=Pop Ditties
TTITLE10=Don't Call Me Baby, Baby
TTITLE11=Snakes Crawl at Night
TTITLE12=Dance Little Sister
TTITLE13=Chromaniac Returns
TTITLE14=Someone I Used to Know (Special Bonus Track)
EXTD=YEAR: 2006
EXTT0=
EXTT1=
EXTT2=
EXTT3=
EXTT4=
EXTT5=
EXTT6=
EXTT7=
EXTT8=
EXTT9=
EXTT10=
EXTT11=
EXTT12=
EXTT13=
EXTT14=
PLAYORDER=
